<?xml version="1.0" encoding="utf-8"?>
<!DOCTYPE svg PUBLIC "-//W3C//DTD SVG 1.1//EN" "http://www.w3.org/Graphics/SVG/1.1/DTD/svg11.dtd">
<svg version="1.1" id="Layer_1" xmlns="http://www.w3.org/2000/svg" xmlns:xlink="http://www.w3.org/1999/xlink" x="0px" y="0px"
	 width="100px" height="100px" viewBox="0 0 100 100" xml:space="preserve">
<style type="text/css">
<![CDATA[
	.st0{fill:#FFFFFF;}
]]>
</style>
<g>
	<g>
		<path class="st0" d="M50,0.4C22.5,0.4,0.2,22.7,0.2,50.2C0.2,77.7,22.5,100,50,100c27.5,0,49.8-22.3,49.8-49.8
			C99.8,22.7,77.5,0.4,50,0.4z M84.2,84.3C75.4,93.1,63.3,98.5,50,98.5c-13.3,0-25.4-5.4-34.2-14.2C7.1,75.6,1.7,63.5,1.7,50.2
			c0-13.3,5.4-25.4,14.2-34.2C24.6,7.3,36.7,1.9,50,1.9c13.3,0,25.4,5.4,34.2,14.2c8.7,8.7,14.2,20.8,14.2,34.2
			C98.3,63.5,92.9,75.6,84.2,84.3z M65.4,47.4L43.9,32.7c-1.4-0.9-2.5-0.3-2.5,1.3v30.1c0,1.7,1.1,2.3,2.5,1.3l21.5-14.7
			C66.8,49.9,66.8,48.3,65.4,47.4z"/>
	</g>
</g>
</svg>
