<?xml version="1.0" encoding="utf-8"?>
<!DOCTYPE svg PUBLIC "-//W3C//DTD SVG 1.1//EN" "http://www.w3.org/Graphics/SVG/1.1/DTD/svg11.dtd">
<svg version="1.1" id="Layer_1" xmlns="http://www.w3.org/2000/svg" xmlns:xlink="http://www.w3.org/1999/xlink" x="0px" y="0px"
	 width="100px" height="100px" viewBox="0 0 100 100" xml:space="preserve">
<style type="text/css">
<![CDATA[
	.st0{fill:#FFFFFF;}
]]>
</style>
<g>
	<path class="st0" d="M50,0.4C22.5,0.4,0.2,22.7,0.2,50.2C0.2,77.7,22.5,100,50,100c27.5,0,49.8-22.3,49.8-49.8
		C99.8,22.7,77.5,0.4,50,0.4z M84.1,84.3C75.4,93.1,63.3,98.5,50,98.5s-25.4-5.4-34.2-14.2C7.1,75.6,1.7,63.5,1.7,50.2
		c0-13.3,5.4-25.4,14.2-34.2C24.6,7.3,36.6,1.9,50,1.9S75.4,7.3,84.1,16c8.7,8.7,14.2,20.8,14.2,34.2C98.3,63.5,92.9,75.6,84.1,84.3
		z"/>
</g>
<g>
	<g>
		<path class="st0" d="M47.1,64.1c0,0.5-0.5,1-1,1h-6.2c-0.5,0-1-0.5-1-1V34.4c0-0.5,0.5-1,1-1h6.2c0.5,0,1,0.5,1,1V64.1z"/>
	</g>
	<g>
		<path class="st0" d="M61,64.1c0,0.5-0.5,1-1,1h-6.2c-0.5,0-1-0.5-1-1V34.4c0-0.5,0.5-1,1-1H60c0.5,0,1,0.5,1,1V64.1z"/>
	</g>
</g>
</svg>
