<?xml version="1.0" encoding="utf-8"?>
<!-- Generator: Adobe Illustrator 16.0.0, SVG Export Plug-In . SVG Version: 6.00 Build 0)  -->
<!DOCTYPE svg PUBLIC "-//W3C//DTD SVG 1.1//EN" "http://www.w3.org/Graphics/SVG/1.1/DTD/svg11.dtd">
<svg version="1.1" id="Layer_1" xmlns="http://www.w3.org/2000/svg" xmlns:xlink="http://www.w3.org/1999/xlink" x="0px" y="0px"
	 width="196.7px" height="196.7px" viewBox="0 0 196.7 196.7" style="enable-background:new 0 0 196.7 196.7;" xml:space="preserve"
	>
<style type="text/css">
<![CDATA[
	.st0{fill:none;stroke:#000000;stroke-width:2.2613;stroke-linecap:round;stroke-linejoin:round;stroke-miterlimit:10;}
]]>
</style>
<g>
	<path class="st0" d="M179,44C161.5,18.2,131.9,1.1,98.4,1.1"/>
	<path class="st0" d="M98.4,1.1C44.7,1.1,1.1,44.7,1.1,98.4c0,53.6,43.6,97.2,97.2,97.2c53.6,0,97.2-43.6,97.2-97.2
		c0-20.1-6.1-38.8-16.6-54.3"/>
</g>
<g>
	<path class="st0" d="M168.1,116.8c-4.3,4.3-10.2,6.9-16.8,6.9c-6.5,0-12.5-2.7-16.7-6.9c-4.3-4.3-6.9-10.2-6.9-16.7
		c0-6.5,2.7-12.5,6.9-16.7c4.3-4.3,10.2-6.9,16.7-6.9c2.3,0,4.6,0.3,6.7,1c2.1,0.6,4.1,1.5,5.9,2.7"/>
	<path class="st0" d="M169.3,84.6c1.8,2.1,3.2,4.5,4.2,7c1,2.6,1.5,5.4,1.5,8.3c0,6.5-2.7,12.5-6.9,16.7"/>
</g>
<path class="st0" d="M28.7,83.3c4.3-4.3,10.2-6.9,16.7-6.9c6.5,0,12.5,2.7,16.7,6.9c4.3,4.3,6.9,10.2,6.9,16.7
	c0,6.5-2.7,12.5-6.9,16.7c-4.3,4.3-10.2,6.9-16.7,6.9c-2.3,0-4.6-0.3-6.7-1c-2.1-0.6-4.1-1.5-5.9-2.7"/>
<path class="st0" d="M27.4,115.5c-1.8-2.1-3.2-4.4-4.2-7c-1-2.6-1.5-5.4-1.5-8.3c0-6.5,2.7-12.5,6.9-16.7"/>
<path class="st0" d="M94.1,100c-6.5,0-11.8,5.3-11.8,11.8c0,6.5,5.3,11.8,11.8,11.8c4.1,0,7.8-2.1,9.9-5.3"/>
<path class="st0" d="M104,81.7c-2.1-3.2-5.8-5.3-9.9-5.3c-6.5,0-11.8,5.3-11.8,11.8c0,6.5,5.3,11.8,11.8,11.8"/>
<path class="st0" d="M94.1,100c0,0,20.2,0,23.8,0"/>
<line class="st0" x1="109.9" y1="107.6" x2="109.9" y2="100"/>
<line class="st0" x1="109.9" y1="100" x2="109.9" y2="92.5"/>
</svg>
